HIERARCHY
ROOT Hips
{
	OFFSET 0.00000 0.00000 0.00000
	CHANNELS 6 Xposition Yposition Zposition Zrotation Yrotation Xrotation 
	JOINT LHipJoint
	{
		OFFSET 0 0 0
		CHANNELS 3 Zrotation Yrotation Xrotation
		JOINT LeftUpLeg
		{
			OFFSET 1.39187 -1.60231 0.69152
			CHANNELS 3 Zrotation Yrotation Xrotation
			JOINT LeftLeg
			{
				OFFSET 2.43314 -6.68499 0.00000
				CHANNELS 3 Zrotation Yrotation Xrotation
				JOINT LeftFoot
				{
					OFFSET 2.32059 -6.37578 0.00000
					CHANNELS 3 Zrotation Yrotation Xrotation
					JOINT LeftToeBase
					{
						OFFSET 0.23021 -0.63250 1.71305
						CHANNELS 3 Zrotation Yrotation Xrotation
						End Site
						{
							OFFSET 0.00000 -0.00000 0.91647
						}
					}
				}
			}
		}
	}
	JOINT RHipJoint
	{
		OFFSET 0 0 0
		CHANNELS 3 Zrotation Yrotation Xrotation
		JOINT RightUpLeg
		{
			OFFSET -1.19407 -1.60231 0.69152
			CHANNELS 3 Zrotation Yrotation Xrotation
			JOINT RightLeg
			{
				OFFSET -2.44411 -6.71513 0.00000
				CHANNELS 3 Zrotation Yrotation Xrotation
				JOINT RightFoot
				{
					OFFSET -2.31924 -6.37207 0.00000
					CHANNELS 3 Zrotation Yrotation Xrotation
					JOINT RightToeBase
					{
						OFFSET -0.19473 -0.53502 1.87724
						CHANNELS 3 Zrotation Yrotation Xrotation
						End Site
						{
							OFFSET -0.00000 -0.00000 0.98293
						}
					}
				}
			}
		}
	}
	JOINT LowerBack
	{
		OFFSET 0 0 0
		CHANNELS 3 Zrotation Yrotation Xrotation
		JOINT Spine
		{
			OFFSET -0.01120 1.87307 0.09613
			CHANNELS 3 Zrotation Yrotation Xrotation
			JOINT Spine1
			{
				OFFSET 0.01099 1.87818 0.04834
				CHANNELS 3 Zrotation Yrotation Xrotation
				JOINT Neck
				{
					OFFSET 0 0 0
					CHANNELS 3 Zrotation Yrotation Xrotation
					JOINT Neck1
					{
						OFFSET 0.01702 1.40324 -0.12579
						CHANNELS 3 Zrotation Yrotation Xrotation
						JOINT Head
						{
							OFFSET -0.04239 1.38587 -0.01614
							CHANNELS 3 Zrotation Yrotation Xrotation
							End Site
							{
								OFFSET -0.02510 1.47031 -0.00154
							}
						}
					}
				}
				JOINT LeftShoulder
				{
					OFFSET 0 0 0
					CHANNELS 3 Zrotation Yrotation Xrotation
					JOINT LeftArm
					{
						OFFSET 2.95699 0.62343 0.11653
						CHANNELS 3 Zrotation Yrotation Xrotation
						JOINT LeftForeArm
						{
							OFFSET 4.68382 -0.00000 -0.00000
							CHANNELS 3 Zrotation Yrotation Xrotation
							JOINT LeftHand
							{
								OFFSET 2.98124 -0.00000 -0.00000
								CHANNELS 3 Zrotation Yrotation Xrotation
								JOINT LeftFingerBase
								{
									OFFSET 0 0 0
									CHANNELS 3 Zrotation Yrotation Xrotation
									JOINT LeftHandIndex1
									{
										OFFSET 0.70759 -0.00000 0.00000
										CHANNELS 3 Zrotation Yrotation Xrotation
										End Site
										{
											OFFSET 0.57048 -0.00000 0.00000
										}
									}
								}
								JOINT LThumb
								{
									OFFSET 0 0 0
									CHANNELS 3 Zrotation Yrotation Xrotation
									End Site
									{
										OFFSET 0.57919 -0.00000 0.57919
									}
								}
							}
						}
					}
				}
				JOINT RightShoulder
				{
					OFFSET 0 0 0
					CHANNELS 3 Zrotation Yrotation Xrotation
					JOINT RightArm
					{
						OFFSET -2.99027 0.88714 -0.02793
						CHANNELS 3 Zrotation Yrotation Xrotation
						JOINT RightForeArm
						{
							OFFSET -4.75876 -0.00000 -0.00000
							CHANNELS 3 Zrotation Yrotation Xrotation
							JOINT RightHand
							{
								OFFSET -2.93293 -0.00000 -0.00000
								CHANNELS 3 Zrotation Yrotation Xrotation
								JOINT RightFingerBase
								{
									OFFSET 0 0 0
									CHANNELS 3 Zrotation Yrotation Xrotation
									JOINT RightHandIndex1
									{
										OFFSET -0.83175 -0.00000 0.00000
										CHANNELS 3 Zrotation Yrotation Xrotation
										End Site
										{
											OFFSET -0.67058 -0.00000 0.00000
										}
									}
								}
								JOINT RThumb
								{
									OFFSET 0 0 0
									CHANNELS 3 Zrotation Yrotation Xrotation
									End Site
									{
										OFFSET -0.68082 -0.00000 0.68082
									}
								}
							}
						}
					}
				}
			}
		}
	}
}
MOTION
Frames: 7
Frame Time: .0083333
-29.3223 16.2046 0.0761 0 0 0 0 0 0 -21 0 0 0 0 0 0 0 0 0 0 0 0 0 0 21 0 0 0 0 0 0 0 0 0 0 0 0 0 0 0 0 0 0 0 0 0 0 -16 0 0 21 0 0 11 0 0 0 -8 0 0 0 0 0 0 0 0 0 0 0 0 0 0 0 0 0 0 0 0 8 0 0 0 0 0 0 0 0 0 0 0 0 0 0 0 0 0
-29.3223 16.2046 0.0761 -31.0378 86.8235 -10.2879 0.0000 0.0000 0.0000 -18.1565 -18.2729 -26.1147 2.9411 10.5992 30.9396 1.9220 0.0054 -26.2554 0.2664 3.3206 9.1726 0.0000 0.0000 0.0000 16.3961 17.9067 -23.0400 -2.2813 -9.4290 27.1468 0.2271 -14.7930 -18.3435 -0.4809 4.4469 -12.3374 -4.8469 -0.6971 -10.9640 1.0060 -0.3445 -1.9375 3.7407 -0.2126 4.1578 -5.5696 -1.5237 -0.6757 5.0840 -2.1402 11.4758 2.6413 -1.0137 4.0457 0.0000 0.0000 0.0000 -94.7663 8.4225 -20.4843 9.1638 -15.4211 -1.2433 -0.0000 -0.0000 39.1244 7.2369 21.1988 2.6291 -7.1250 0.0000 -0.0000 -21.1635 50.1034 -2.7716 0.0000 0.0000 0.0000 92.7240 -7.2195 4.2449 -13.5393 22.0723 -2.6525 0.0000 0.0000 12.0816 -15.5888 8.5116 -2.3646 7.1250 -0.0000 -0.0000 8.1444 -21.1847 4.6976
-29.2998 16.2013 0.0689 -29.9000 87.0145 -9.1676 0.0000 0.0000 0.0000 -18.3521 -18.3564 -26.0107 2.9522 10.6173 30.9999 1.9352 -0.1035 -26.3102 0.2925 3.4779 9.6121 0.0000 0.0000 0.0000 16.2388 17.8896 -23.0946 -2.3306 -9.5231 27.4459 0.2475 -15.0329 -18.4761 -0.4846 4.4637 -12.3850 -4.8738 -0.7486 -10.9423 0.8794 -0.4051 -1.9206 3.6140 -0.2431 4.1690 -5.5632 -1.4735 -0.7439 5.2529 -2.0868 11.6316 2.7042 -0.9780 4.1153 -0.0000 0.0000 0.0000 -94.6472 8.8367 -20.5021 9.1743 -15.4378 -1.2461 -0.0000 -0.0000 39.4316 7.2613 21.4888 2.6723 -7.1250 0.0000 -0.0000 -21.2814 50.3773 -2.9364 -0.0000 0.0000 0.0000 92.8318 -7.2294 3.7574 -13.3760 21.8356 -2.5915 0.0000 0.0000 12.4874 -15.4791 8.4498 -2.3303 7.1250 -0.0000 -0.0000 8.2251 -21.2534 4.7322
-29.2785 16.1954 0.0558 -30.8296 86.9756 -9.8475 0.0000 0.0000 0.0000 -18.2578 -18.5548 -26.2718 2.9855 10.6716 31.1800 1.9483 0.0591 -26.4530 0.2862 3.4405 9.5076 0.0000 0.0000 0.0000 16.1988 17.7439 -23.5521 -2.3731 -9.6034 27.7017 0.1837 -14.6704 -18.6995 -0.4963 4.5166 -12.5347 -4.6331 -0.7330 -11.1658 0.7833 -0.3951 -1.9411 3.3782 -0.2354 4.2682 -5.3496 -1.4240 -1.0100 5.3311 -2.0468 12.1706 2.4388 -0.9216 3.8982 0.0000 0.0000 0.0000 -94.5114 8.9693 -21.3436 9.1007 -15.3207 -1.2266 -0.0000 -0.0000 40.1979 6.9871 21.6920 2.5936 -7.1250 0.0000 -0.0000 -21.6371 50.5236 -3.0701 0.0000 0.0000 0.0000 92.9603 -7.1480 3.2679 -13.2227 21.6126 -2.5347 0.0000 0.0000 12.9606 -15.4863 8.3928 -2.3158 7.1250 -0.0000 -0.0000 8.2215 -21.3115 4.7191
-29.2520 16.1871 0.0424 -32.6771 86.9308 -11.8327 0.0000 0.0000 0.0000 -18.2661 -18.6307 -26.0351 3.0095 10.7104 31.3092 1.9605 0.2896 -26.6127 0.2663 3.3197 9.1701 0.0000 0.0000 0.0000 16.3481 17.3731 -23.5792 -2.4260 -9.7021 28.0173 0.1031 -14.2472 -19.0405 -0.5101 4.5781 -12.7091 -4.3727 -0.6841 -10.9969 0.7011 -0.3670 -1.8671 3.1485 -0.2197 4.2476 -5.1789 -1.3322 -1.1054 5.1556 -1.8941 11.7679 2.6088 -0.8664 4.2116 -0.0000 -0.0000 0.0000 -94.3784 9.0870 -22.1189 9.0295 -15.2074 -1.2078 -0.0000 -0.0000 40.6293 6.8742 21.7297 2.5556 -7.1250 0.0000 -0.0000 -21.7610 50.5409 -3.0988 -0.0000 -0.0000 0.0000 93.0576 -7.0537 2.8215 -13.0432 21.3505 -2.4690 0.0000 0.0000 13.3680 -15.4881 8.3540 -2.3055 7.1250 -0.0000 -0.0000 8.2213 -21.3512 4.7116
-29.2486 16.1821 0.0372 -35.9202 87.3127 -14.8454 0.0000 0.0000 0.0000 -18.2256 -18.7520 -26.3897 3.0369 10.7545 31.4563 1.9731 -0.1020 -26.5696 0.2627 3.2972 9.1074 0.0000 0.0000 0.0000 16.2712 17.0450 -24.0910 -2.4849 -9.8104 28.3648 0.1109 -14.3198 -19.0552 -0.5219 4.6299 -12.8559 -4.4427 -0.8076 -10.8181 0.7033 -0.5310 -2.0139 3.1671 -0.2923 4.0097 -5.0333 -1.3423 -1.0148 5.0330 -1.9039 11.8261 2.5388 -0.8695 4.2094 0.0000 0.0000 0.0000 -94.3441 9.3510 -22.5969 8.9594 -15.0958 -1.1895 -0.0000 -0.0000 41.0567 6.9536 22.0533 2.6219 -7.1250 0.0000 -0.0000 -21.8497 50.8537 -3.2862 0.0000 0.0000 0.0000 93.0738 -7.0109 2.2438 -12.8427 21.0564 -2.3965 0.0000 0.0000 13.8094 -15.4938 8.2809 -2.2863 7.1250 -0.0000 -0.0000 8.2193 -21.4258 4.6963
-29.2399 16.1754 0.0308 -36.7476 87.5999 -15.4390 0.0000 0.0000 0.0000 -18.2849 -18.9526 -26.6563 3.0542 10.7822 31.5489 1.9775 -0.2541 -26.5511 0.2672 3.3250 9.1848 0.0000 0.0000 0.0000 16.0883 16.7953 -24.5693 -2.5392 -9.9088 28.6817 0.1136 -14.2926 -18.9817 -0.5130 4.5907 -12.7448 -4.6152 -0.8997 -10.7800 0.7098 -0.6346 -2.1330 3.2572 -0.3388 3.8749 -4.8413 -1.3149 -1.0076 4.7701 -1.8480 12.0048 2.4160 -0.8425 4.2592 0.0000 0.0000 0.0000 -94.3052 9.5631 -23.2178 8.8331 -14.8940 -1.1568 -0.0000 -0.0000 41.8094 6.9799 22.4767 2.6798 -7.1250 0.0000 -0.0000 -22.0420 51.2501 -3.5394 0.0000 0.0000 0.0000 93.0434 -7.1253 1.9116 -12.7637 20.9401 -2.3682 0.0000 0.0000 14.0062 -15.5772 8.1748 -2.2700 7.1250 -0.0000 -0.0000 8.1621 -21.5308 4.6434
